<svg class="logo" version="1.1" xmlns="http://www.w3.org/2000/svg" xmlns:xlink="http://www.w3.org/1999/xlink" x="0px" y="0px" viewBox="0 0 3602.52 1394.81"  xml:space="preserve">
			<g>
				<g>
					<g>
						<path class="st0" d="M301.37,1007.16l-3.81-12.44c-0.17-0.33-0.38-0.51-0.63-0.51h-31.22c-0.26,0-0.47,0.17-0.64,0.51
							l-3.68,12.44c-0.25,0.84-0.8,1.27-1.65,1.27h-16.11c-0.51,0-0.89-0.15-1.14-0.44c-0.25-0.3-0.3-0.74-0.13-1.33l27.41-85.79
							c0.26-0.84,0.8-1.27,1.65-1.27h19.92c0.84,0,1.4,0.42,1.65,1.27l27.41,85.79c0.08,0.17,0.13,0.38,0.13,0.63
							c0,0.76-0.47,1.14-1.4,1.14h-16.12C302.18,1008.43,301.63,1008.01,301.37,1007.16z M270.15,980.39h22.33
							c0.51,0,0.68-0.26,0.51-0.76l-11.42-37.69c-0.08-0.33-0.21-0.48-0.38-0.44c-0.17,0.05-0.3,0.19-0.38,0.44l-11.17,37.69
							C269.56,980.13,269.73,980.39,270.15,980.39z"/>
						<path class="st0" d="M349.34,1005.51c-4.99-2.62-8.86-6.28-11.61-10.97c-2.75-4.7-4.13-10.13-4.13-16.31v-28.42
							c0-6.18,1.37-11.63,4.13-16.37c2.75-4.74,6.62-8.4,11.61-10.97c4.99-2.58,10.74-3.88,17.26-3.88c6.43,0,12.12,1.27,17.07,3.81
							c4.95,2.54,8.8,5.99,11.55,10.34c2.75,4.36,4.13,9.2,4.13,14.53v0.89c0,0.42-0.15,0.79-0.45,1.08c-0.3,0.3-0.66,0.44-1.08,0.44
							h-14.85c-0.42,0-0.78-0.15-1.08-0.44c-0.3-0.3-0.45-0.66-0.45-1.08v-0.38c0-3.89-1.35-7.17-4.06-9.84c-2.71-2.66-6.3-4-10.79-4
							c-4.57,0-8.23,1.42-10.98,4.25c-2.75,2.83-4.12,6.53-4.12,11.1v29.44c0,4.57,1.48,8.27,4.44,11.11c2.96,2.83,6.73,4.25,11.3,4.25
							c4.4,0,7.91-1.16,10.53-3.49c2.62-2.33,3.93-5.56,3.93-9.71v-5.71c0-0.42-0.21-0.63-0.63-0.63h-14.21
							c-0.42,0-0.79-0.15-1.08-0.45c-0.3-0.29-0.45-0.65-0.45-1.08v-11.68c0-0.42,0.15-0.78,0.45-1.08c0.29-0.3,0.65-0.44,1.08-0.44
							h30.96c0.42,0,0.78,0.15,1.08,0.44c0.29,0.3,0.45,0.66,0.45,1.08v16.75c0,6.44-1.36,12.01-4.06,16.75
							c-2.71,4.74-6.54,8.36-11.49,10.85c-4.95,2.5-10.68,3.74-17.2,3.74S354.33,1008.14,349.34,1005.51z"/>
						<path class="st0" d="M480.62,934.52c-0.3,0.3-0.66,0.44-1.08,0.44h-41.62c-0.42,0-0.63,0.21-0.63,0.63v19.67
							c0,0.42,0.21,0.63,0.63,0.63h27.29c0.42,0,0.78,0.15,1.08,0.44c0.29,0.3,0.44,0.66,0.44,1.08v12.31c0,0.42-0.15,0.78-0.44,1.08
							c-0.3,0.3-0.66,0.45-1.08,0.45h-27.29c-0.42,0-0.63,0.21-0.63,0.63v20.56c0,0.42,0.21,0.63,0.63,0.63h41.62
							c0.42,0,0.78,0.15,1.08,0.44c0.29,0.3,0.44,0.66,0.44,1.08v12.31c0,0.42-0.15,0.79-0.44,1.08c-0.3,0.3-0.66,0.44-1.08,0.44
							h-58.63c-0.42,0-0.78-0.15-1.08-0.44c-0.3-0.3-0.45-0.66-0.45-1.08v-85.78c0-0.42,0.15-0.79,0.45-1.08
							c0.29-0.3,0.65-0.44,1.08-0.44h58.63c0.42,0,0.78,0.15,1.08,0.44c0.29,0.3,0.44,0.66,0.44,1.08v12.31
							C481.06,933.86,480.91,934.22,480.62,934.52z"/>
						<path class="st0" d="M551.3,920.05c0.29-0.3,0.65-0.44,1.08-0.44h14.85c0.42,0,0.78,0.15,1.08,0.44c0.3,0.3,0.45,0.66,0.45,1.08
							v85.78c0,0.42-0.15,0.79-0.45,1.08c-0.3,0.3-0.66,0.44-1.08,0.44h-14.34c-0.85,0-1.44-0.34-1.78-1.01l-32.86-54.31
							c-0.17-0.26-0.34-0.36-0.51-0.32c-0.17,0.05-0.25,0.23-0.25,0.57l0.25,53.55c0,0.42-0.15,0.79-0.44,1.08
							c-0.3,0.3-0.66,0.44-1.08,0.44h-14.85c-0.42,0-0.78-0.15-1.08-0.44c-0.3-0.3-0.45-0.66-0.45-1.08v-85.78
							c0-0.42,0.15-0.79,0.45-1.08c0.29-0.3,0.65-0.44,1.08-0.44h14.34c0.85,0,1.44,0.34,1.78,1.01l32.74,54.06
							c0.17,0.26,0.34,0.37,0.51,0.32c0.17-0.04,0.25-0.23,0.25-0.57l-0.13-53.3C550.85,920.7,551,920.34,551.3,920.05z"/>
						<path class="st0" d="M587.34,1007.99c-0.3-0.3-0.45-0.66-0.45-1.08v-13.7c0-0.67,0.21-1.31,0.63-1.9l40.99-55.58
							c0.17-0.17,0.19-0.34,0.06-0.51c-0.13-0.17-0.32-0.26-0.57-0.26h-39.59c-0.42,0-0.78-0.15-1.08-0.44
							c-0.3-0.3-0.45-0.66-0.45-1.08v-12.31c0-0.42,0.15-0.79,0.45-1.08c0.29-0.3,0.65-0.44,1.08-0.44h58.76
							c0.42,0,0.78,0.15,1.08,0.44c0.3,0.3,0.45,0.66,0.45,1.08v13.7c0,0.68-0.21,1.31-0.63,1.9l-40.99,55.58
							c-0.08,0.17-0.08,0.34,0,0.51c0.08,0.17,0.26,0.26,0.51,0.26h39.59c0.42,0,0.78,0.15,1.08,0.44c0.3,0.3,0.45,0.66,0.45,1.08
							v12.31c0,0.42-0.15,0.79-0.45,1.08c-0.3,0.3-0.65,0.44-1.08,0.44h-58.76C587.99,1008.43,587.63,1008.29,587.34,1007.99z"/>
						<path class="st0" d="M668.04,1007.99c-0.3-0.3-0.45-0.66-0.45-1.08v-85.78c0-0.42,0.15-0.79,0.45-1.08
							c0.29-0.3,0.65-0.44,1.08-0.44h14.85c0.42,0,0.78,0.15,1.08,0.44c0.29,0.3,0.44,0.66,0.44,1.08v85.78c0,0.42-0.15,0.79-0.44,1.08
							c-0.3,0.3-0.66,0.44-1.08,0.44h-14.85C668.69,1008.43,668.34,1008.29,668.04,1007.99z"/>
						<path class="st0" d="M762.14,1007.16l-3.81-12.44c-0.17-0.33-0.38-0.51-0.63-0.51h-31.22c-0.26,0-0.47,0.17-0.64,0.51
							l-3.68,12.44c-0.25,0.84-0.8,1.27-1.65,1.27H704.4c-0.51,0-0.89-0.15-1.14-0.44c-0.25-0.3-0.3-0.74-0.13-1.33l27.41-85.79
							c0.26-0.84,0.8-1.27,1.65-1.27h19.92c0.84,0,1.4,0.42,1.65,1.27l27.41,85.79c0.08,0.17,0.13,0.38,0.13,0.63
							c0,0.76-0.47,1.14-1.4,1.14h-16.12C762.94,1008.43,762.39,1008.01,762.14,1007.16z M730.92,980.39h22.33
							c0.51,0,0.68-0.26,0.51-0.76l-11.42-37.69c-0.08-0.33-0.21-0.48-0.38-0.44c-0.17,0.05-0.3,0.19-0.38,0.44l-11.17,37.69
							C730.33,980.13,730.49,980.39,730.92,980.39z"/>
						<path class="st0" d="M881.99,920.05c0.29-0.3,0.65-0.44,1.08-0.44h14.85c0.42,0,0.78,0.15,1.08,0.44c0.3,0.3,0.45,0.66,0.45,1.08
							v85.78c0,0.42-0.15,0.79-0.45,1.08c-0.3,0.3-0.66,0.44-1.08,0.44h-14.34c-0.85,0-1.44-0.34-1.78-1.01l-32.86-54.31
							c-0.17-0.26-0.34-0.36-0.51-0.32c-0.17,0.05-0.25,0.23-0.25,0.57l0.25,53.55c0,0.42-0.15,0.79-0.44,1.08
							c-0.3,0.3-0.66,0.44-1.08,0.44h-14.85c-0.42,0-0.78-0.15-1.08-0.44c-0.3-0.3-0.45-0.66-0.45-1.08v-85.78
							c0-0.42,0.15-0.79,0.45-1.08c0.29-0.3,0.65-0.44,1.08-0.44h14.34c0.85,0,1.44,0.34,1.78,1.01l32.74,54.06
							c0.17,0.26,0.34,0.37,0.51,0.32c0.17-0.04,0.25-0.23,0.25-0.57l-0.13-53.3C881.55,920.7,881.69,920.34,881.99,920.05z"/>
						<path class="st0" d="M976.09,1007.16l-3.81-12.44c-0.17-0.33-0.38-0.51-0.63-0.51h-31.22c-0.26,0-0.47,0.17-0.64,0.51
							l-3.68,12.44c-0.25,0.84-0.8,1.27-1.65,1.27h-16.11c-0.51,0-0.89-0.15-1.14-0.44c-0.25-0.3-0.3-0.74-0.13-1.33l27.41-85.79
							c0.26-0.84,0.8-1.27,1.65-1.27h19.92c0.84,0,1.4,0.42,1.65,1.27l27.41,85.79c0.08,0.17,0.13,0.38,0.13,0.63
							c0,0.76-0.47,1.14-1.4,1.14h-16.12C976.89,1008.43,976.34,1008.01,976.09,1007.16z M944.87,980.39h22.33
							c0.51,0,0.68-0.26,0.51-0.76l-11.42-37.69c-0.08-0.33-0.21-0.48-0.38-0.44c-0.17,0.05-0.3,0.19-0.38,0.44l-11.17,37.69
							C944.27,980.13,944.44,980.39,944.87,980.39z"/>
						<path class="st0" d="M1010.54,1007.99c-0.3-0.3-0.45-0.66-0.45-1.08v-13.7c0-0.67,0.21-1.31,0.63-1.9l40.99-55.58
							c0.17-0.17,0.19-0.34,0.06-0.51c-0.13-0.17-0.32-0.26-0.57-0.26h-39.59c-0.42,0-0.78-0.15-1.08-0.44
							c-0.3-0.3-0.45-0.66-0.45-1.08v-12.31c0-0.42,0.15-0.79,0.45-1.08c0.29-0.3,0.65-0.44,1.08-0.44h58.76
							c0.42,0,0.78,0.15,1.08,0.44s0.45,0.66,0.45,1.08v13.7c0,0.68-0.21,1.31-0.63,1.9l-40.99,55.58c-0.08,0.17-0.08,0.34,0,0.51
							c0.08,0.17,0.26,0.26,0.51,0.26h39.59c0.42,0,0.78,0.15,1.08,0.44c0.3,0.3,0.45,0.66,0.45,1.08v12.31c0,0.42-0.15,0.79-0.45,1.08
							c-0.3,0.3-0.65,0.44-1.08,0.44h-58.76C1011.19,1008.43,1010.83,1008.29,1010.54,1007.99z"/>
						<path class="st0" d="M1091.24,1007.99c-0.3-0.3-0.45-0.66-0.45-1.08v-85.78c0-0.42,0.15-0.79,0.45-1.08
							c0.29-0.3,0.65-0.44,1.08-0.44h14.85c0.42,0,0.78,0.15,1.08,0.44c0.29,0.3,0.44,0.66,0.44,1.08v85.78c0,0.42-0.15,0.79-0.44,1.08
							c-0.3,0.3-0.66,0.44-1.08,0.44h-14.85C1091.9,1008.43,1091.54,1008.29,1091.24,1007.99z"/>
						<path class="st0" d="M1144.67,1005.77c-5.04-2.71-8.95-6.49-11.74-11.36c-2.79-4.86-4.19-10.47-4.19-16.81v-27.15
							c0-6.26,1.4-11.81,4.19-16.62c2.79-4.82,6.7-8.57,11.74-11.24c5.03-2.66,10.85-4,17.45-4c6.68,0,12.54,1.33,17.58,4
							c5.03,2.66,8.95,6.41,11.74,11.24c2.79,4.82,4.19,10.36,4.19,16.62v27.15c0,6.35-1.4,11.97-4.19,16.88
							c-2.79,4.9-6.71,8.69-11.74,11.36c-5.04,2.66-10.89,4-17.58,4C1155.51,1009.83,1149.7,1008.47,1144.67,1005.77z M1173.41,990.03
							c2.87-2.96,4.31-6.89,4.31-11.81v-27.92c0-4.9-1.42-8.86-4.25-11.86s-6.62-4.51-11.36-4.51c-4.65,0-8.4,1.51-11.23,4.51
							c-2.84,3-4.25,6.96-4.25,11.86v27.92c0,4.91,1.41,8.84,4.25,11.81c2.83,2.96,6.58,4.44,11.23,4.44
							C1166.76,994.47,1170.53,993,1173.41,990.03z"/>
						<path class="st0" d="M1267.12,920.05c0.29-0.3,0.65-0.44,1.08-0.44h14.85c0.42,0,0.78,0.15,1.08,0.44
							c0.3,0.3,0.45,0.66,0.45,1.08v85.78c0,0.42-0.15,0.79-0.45,1.08c-0.3,0.3-0.66,0.44-1.08,0.44h-14.34
							c-0.85,0-1.44-0.34-1.78-1.01l-32.86-54.31c-0.17-0.26-0.34-0.36-0.51-0.32c-0.17,0.05-0.25,0.23-0.25,0.57l0.25,53.55
							c0,0.42-0.15,0.79-0.44,1.08c-0.3,0.3-0.66,0.44-1.08,0.44h-14.85c-0.42,0-0.78-0.15-1.08-0.44c-0.3-0.3-0.45-0.66-0.45-1.08
							v-85.78c0-0.42,0.15-0.79,0.45-1.08c0.29-0.3,0.65-0.44,1.08-0.44h14.34c0.85,0,1.44,0.34,1.78,1.01l32.74,54.06
							c0.17,0.26,0.34,0.37,0.51,0.32c0.17-0.04,0.25-0.23,0.25-0.57l-0.13-53.3C1266.68,920.7,1266.82,920.34,1267.12,920.05z"/>
						<path class="st0" d="M1361.21,1007.16l-3.81-12.44c-0.17-0.33-0.38-0.51-0.63-0.51h-31.22c-0.26,0-0.47,0.17-0.64,0.51
							l-3.68,12.44c-0.25,0.84-0.8,1.27-1.65,1.27h-16.11c-0.51,0-0.89-0.15-1.14-0.44c-0.25-0.3-0.3-0.74-0.13-1.33l27.41-85.79
							c0.26-0.84,0.8-1.27,1.65-1.27h19.92c0.84,0,1.4,0.42,1.65,1.27l27.41,85.79c0.08,0.17,0.13,0.38,0.13,0.63
							c0,0.76-0.47,1.14-1.4,1.14h-16.12C1362.02,1008.43,1361.47,1008.01,1361.21,1007.16z M1330,980.39h22.33
							c0.51,0,0.68-0.26,0.51-0.76l-11.42-37.69c-0.08-0.33-0.21-0.48-0.38-0.44c-0.17,0.05-0.3,0.19-0.38,0.44l-11.17,37.69
							C1329.4,980.13,1329.57,980.39,1330,980.39z"/>
						<path class="st0" d="M1398.33,1007.99c-0.3-0.3-0.45-0.66-0.45-1.08v-85.78c0-0.42,0.15-0.79,0.45-1.08
							c0.29-0.3,0.65-0.44,1.08-0.44h14.85c0.42,0,0.78,0.15,1.08,0.44c0.29,0.3,0.44,0.66,0.44,1.08v71.32c0,0.42,0.21,0.63,0.63,0.63
							h41.5c0.42,0,0.78,0.15,1.08,0.44c0.3,0.3,0.45,0.66,0.45,1.08v12.31c0,0.42-0.15,0.79-0.45,1.08c-0.3,0.3-0.66,0.44-1.08,0.44
							h-58.5C1398.98,1008.43,1398.63,1008.29,1398.33,1007.99z"/>
						<path class="st0" d="M1538.05,934.52c-0.3,0.3-0.66,0.44-1.08,0.44h-41.62c-0.42,0-0.63,0.21-0.63,0.63v19.67
							c0,0.42,0.21,0.63,0.63,0.63h27.29c0.42,0,0.78,0.15,1.08,0.44c0.29,0.3,0.44,0.66,0.44,1.08v12.31c0,0.42-0.15,0.78-0.44,1.08
							c-0.3,0.3-0.66,0.45-1.08,0.45h-27.29c-0.42,0-0.63,0.21-0.63,0.63v20.56c0,0.42,0.21,0.63,0.63,0.63h41.62
							c0.42,0,0.78,0.15,1.08,0.44c0.29,0.3,0.44,0.66,0.44,1.08v12.31c0,0.42-0.15,0.79-0.44,1.08c-0.3,0.3-0.66,0.44-1.08,0.44
							h-58.63c-0.42,0-0.78-0.15-1.08-0.44c-0.3-0.3-0.45-0.66-0.45-1.08v-85.78c0-0.42,0.15-0.79,0.45-1.08
							c0.29-0.3,0.65-0.44,1.08-0.44h58.63c0.42,0,0.78,0.15,1.08,0.44c0.29,0.3,0.44,0.66,0.44,1.08v12.31
							C1538.49,933.86,1538.34,934.22,1538.05,934.52z"/>
						<path class="st0" d="M1640.39,922.9c4.23,2.29,7.51,5.52,9.84,9.7c2.32,4.19,3.49,9,3.49,14.41c0,5.33-1.2,10.02-3.62,14.09
							c-2.41,4.06-5.8,7.21-10.15,9.45s-9.37,3.36-15.04,3.36h-18.02c-0.42,0-0.63,0.21-0.63,0.63v32.36c0,0.42-0.15,0.79-0.44,1.08
							c-0.3,0.3-0.66,0.44-1.08,0.44h-14.85c-0.42,0-0.78-0.15-1.08-0.44c-0.3-0.3-0.44-0.66-0.44-1.08V921c0-0.42,0.15-0.79,0.44-1.08
							c0.3-0.29,0.65-0.44,1.08-0.44h35.79C1631.25,919.48,1636.16,920.62,1640.39,922.9z M1632.39,956.21
							c2.37-2.24,3.55-5.18,3.55-8.82c0-3.72-1.18-6.73-3.55-9.01c-2.37-2.29-5.5-3.43-9.39-3.43h-16.12c-0.42,0-0.63,0.21-0.63,0.63
							v23.35c0,0.42,0.21,0.63,0.63,0.63H1623C1626.89,959.58,1630.03,958.46,1632.39,956.21z"/>
						<path class="st0" d="M1732.33,934.52c-0.3,0.3-0.66,0.44-1.08,0.44h-41.62c-0.42,0-0.63,0.21-0.63,0.63v19.67
							c0,0.42,0.21,0.63,0.63,0.63h27.29c0.42,0,0.78,0.15,1.08,0.44c0.29,0.3,0.44,0.66,0.44,1.08v12.31c0,0.42-0.15,0.78-0.44,1.08
							c-0.3,0.3-0.66,0.45-1.08,0.45h-27.29c-0.42,0-0.63,0.21-0.63,0.63v20.56c0,0.42,0.21,0.63,0.63,0.63h41.62
							c0.42,0,0.78,0.15,1.08,0.44c0.29,0.3,0.44,0.66,0.44,1.08v12.31c0,0.42-0.15,0.79-0.44,1.08c-0.3,0.3-0.66,0.44-1.08,0.44
							h-58.63c-0.42,0-0.78-0.15-1.08-0.44c-0.3-0.3-0.45-0.66-0.45-1.08v-85.78c0-0.42,0.15-0.79,0.45-1.08
							c0.29-0.3,0.65-0.44,1.08-0.44h58.63c0.42,0,0.78,0.15,1.08,0.44c0.29,0.3,0.44,0.66,0.44,1.08v12.31
							C1732.77,933.86,1732.62,934.22,1732.33,934.52z"/>
						<path class="st0" d="M1798.5,1007.29l-15.86-35.15c-0.17-0.34-0.42-0.51-0.76-0.51h-11.8c-0.42,0-0.63,0.22-0.63,0.63v34.64
							c0,0.42-0.15,0.79-0.44,1.08c-0.3,0.3-0.66,0.44-1.08,0.44h-14.85c-0.42,0-0.78-0.15-1.08-0.44c-0.3-0.3-0.45-0.66-0.45-1.08
							v-85.78c0-0.42,0.15-0.79,0.45-1.08c0.29-0.3,0.65-0.44,1.08-0.44h36.29c5.41,0,10.17,1.1,14.28,3.3c4.1,2.2,7.28,5.33,9.52,9.39
							c2.24,4.06,3.36,8.76,3.36,14.09c0,5.75-1.44,10.68-4.31,14.78s-6.89,7-12.06,8.69c-0.42,0.17-0.55,0.47-0.38,0.88l17.26,35.92
							c0.17,0.34,0.25,0.59,0.25,0.76c0,0.67-0.47,1.01-1.4,1.01h-15.61C1799.43,1008.43,1798.84,1008.05,1798.5,1007.29z
							 M1769.44,935.59v21.7c0,0.42,0.21,0.64,0.63,0.64h16.63c3.55,0,6.45-1.06,8.69-3.18c2.24-2.11,3.36-4.86,3.36-8.24
							c0-3.39-1.12-6.16-3.36-8.31c-2.24-2.16-5.14-3.23-8.69-3.23h-16.63C1769.65,934.96,1769.44,935.17,1769.44,935.59z"/>
						<path class="st0" d="M1867.98,1007.99c-0.3-0.3-0.45-0.66-0.45-1.08v-85.78c0-0.42,0.15-0.79,0.45-1.08
							c0.29-0.3,0.65-0.44,1.08-0.44h14.85c0.42,0,0.78,0.15,1.08,0.44c0.29,0.3,0.44,0.66,0.44,1.08v71.32c0,0.42,0.21,0.63,0.63,0.63
							h41.5c0.42,0,0.78,0.15,1.08,0.44c0.3,0.3,0.45,0.66,0.45,1.08v12.31c0,0.42-0.15,0.79-0.45,1.08c-0.3,0.3-0.66,0.44-1.08,0.44
							h-58.5C1868.63,1008.43,1868.28,1008.29,1867.98,1007.99z"/>
						<path class="st0" d="M2007.69,934.52c-0.3,0.3-0.66,0.44-1.08,0.44h-41.62c-0.42,0-0.63,0.21-0.63,0.63v19.67
							c0,0.42,0.21,0.63,0.63,0.63h27.28c0.42,0,0.78,0.15,1.08,0.44c0.29,0.3,0.44,0.66,0.44,1.08v12.31c0,0.42-0.15,0.78-0.44,1.08
							c-0.3,0.3-0.66,0.45-1.08,0.45h-27.28c-0.42,0-0.63,0.21-0.63,0.63v20.56c0,0.42,0.21,0.63,0.63,0.63h41.62
							c0.42,0,0.78,0.15,1.08,0.44c0.29,0.3,0.44,0.66,0.44,1.08v12.31c0,0.42-0.15,0.79-0.44,1.08c-0.3,0.3-0.66,0.44-1.08,0.44
							h-58.63c-0.42,0-0.78-0.15-1.08-0.44c-0.3-0.3-0.45-0.66-0.45-1.08v-85.78c0-0.42,0.15-0.79,0.45-1.08
							c0.29-0.3,0.65-0.44,1.08-0.44h58.63c0.42,0,0.78,0.15,1.08,0.44c0.29,0.3,0.44,0.66,0.44,1.08v12.31
							C2008.14,933.86,2007.99,934.22,2007.69,934.52z"/>
						<path class="st0" d="M2110.1,920.05c0.29-0.3,0.65-0.44,1.08-0.44h14.85c0.42,0,0.78,0.15,1.08,0.44c0.3,0.3,0.45,0.66,0.45,1.08
							v85.78c0,0.42-0.15,0.79-0.45,1.08c-0.3,0.3-0.66,0.44-1.08,0.44h-14.34c-0.85,0-1.44-0.34-1.78-1.01l-32.86-54.31
							c-0.17-0.26-0.34-0.36-0.51-0.32c-0.17,0.05-0.25,0.23-0.25,0.57l0.25,53.55c0,0.42-0.15,0.79-0.44,1.08
							c-0.3,0.3-0.66,0.44-1.08,0.44h-14.85c-0.42,0-0.78-0.15-1.08-0.44c-0.3-0.3-0.45-0.66-0.45-1.08v-85.78
							c0-0.42,0.15-0.79,0.45-1.08c0.29-0.3,0.65-0.44,1.08-0.44h14.34c0.85,0,1.44,0.34,1.78,1.01l32.74,54.06
							c0.17,0.26,0.34,0.37,0.51,0.32c0.17-0.04,0.25-0.23,0.25-0.57l-0.13-53.3C2109.66,920.7,2109.81,920.34,2110.1,920.05z"/>
						<path class="st0" d="M2164.41,1005.64c-4.95-2.54-8.8-6.11-11.55-10.72c-2.75-4.61-4.12-9.91-4.12-15.92v-57.86
							c0-0.42,0.15-0.79,0.44-1.08c0.3-0.3,0.65-0.44,1.08-0.44h14.85c0.42,0,0.78,0.15,1.08,0.44c0.29,0.3,0.44,0.66,0.44,1.08v57.99
							c0,4.49,1.38,8.1,4.13,10.85c2.75,2.75,6.37,4.12,10.85,4.12c4.48,0,8.1-1.37,10.85-4.12c2.75-2.75,4.13-6.37,4.13-10.85v-57.99
							c0-0.42,0.15-0.79,0.44-1.08s0.65-0.44,1.08-0.44h14.85c0.42,0,0.78,0.15,1.08,0.44c0.3,0.3,0.45,0.66,0.45,1.08v57.86
							c0,6.01-1.38,11.32-4.13,15.92c-2.75,4.61-6.6,8.19-11.55,10.72c-4.95,2.54-10.68,3.81-17.2,3.81
							C2175.09,1009.44,2169.36,1008.18,2164.41,1005.64z"/>
						<path class="st0" d="M2248.93,1005.77c-5.04-2.71-8.95-6.49-11.74-11.36c-2.79-4.86-4.19-10.47-4.19-16.81v-27.15
							c0-6.26,1.4-11.81,4.19-16.62c2.79-4.82,6.7-8.57,11.74-11.24c5.03-2.66,10.85-4,17.45-4c6.68,0,12.54,1.33,17.58,4
							c5.03,2.66,8.95,6.41,11.74,11.24c2.79,4.82,4.19,10.36,4.19,16.62v27.15c0,6.35-1.4,11.97-4.19,16.88
							c-2.79,4.9-6.71,8.69-11.74,11.36c-5.04,2.66-10.89,4-17.58,4C2259.78,1009.83,2253.96,1008.47,2248.93,1005.77z M2277.67,990.03
							c2.87-2.96,4.31-6.89,4.31-11.81v-27.92c0-4.9-1.42-8.86-4.25-11.86c-2.83-3-6.62-4.51-11.36-4.51c-4.65,0-8.4,1.51-11.23,4.51
							c-2.84,3-4.25,6.96-4.25,11.86v27.92c0,4.91,1.41,8.84,4.25,11.81c2.83,2.96,6.58,4.44,11.23,4.44
							C2271.02,994.47,2274.79,993,2277.67,990.03z"/>
						<path class="st0" d="M2339.97,1007.16l-26.14-85.79l-0.12-0.51c0-0.84,0.46-1.27,1.4-1.27h15.99c0.93,0,1.52,0.42,1.77,1.27
							l16.88,61.92c0.08,0.26,0.21,0.38,0.38,0.38c0.17,0,0.29-0.13,0.38-0.38l16.62-61.92c0.25-0.84,0.84-1.27,1.78-1.27h15.61
							c0.51,0,0.89,0.17,1.14,0.51c0.25,0.34,0.29,0.76,0.12,1.27l-26.52,85.79c-0.25,0.84-0.8,1.27-1.65,1.27h-15.99
							C2340.78,1008.43,2340.23,1008.01,2339.97,1007.16z"/>
						<path class="st0" d="M2463.77,934.52c-0.3,0.3-0.66,0.44-1.08,0.44h-41.62c-0.42,0-0.63,0.21-0.63,0.63v19.67
							c0,0.42,0.21,0.63,0.63,0.63h27.28c0.42,0,0.78,0.15,1.08,0.44c0.29,0.3,0.44,0.66,0.44,1.08v12.31c0,0.42-0.15,0.78-0.44,1.08
							c-0.3,0.3-0.66,0.45-1.08,0.45h-27.28c-0.42,0-0.63,0.21-0.63,0.63v20.56c0,0.42,0.21,0.63,0.63,0.63h41.62
							c0.42,0,0.78,0.15,1.08,0.44c0.29,0.3,0.44,0.66,0.44,1.08v12.31c0,0.42-0.15,0.79-0.44,1.08c-0.3,0.3-0.66,0.44-1.08,0.44
							h-58.63c-0.42,0-0.78-0.15-1.08-0.44c-0.3-0.3-0.45-0.66-0.45-1.08v-85.78c0-0.42,0.15-0.79,0.45-1.08
							c0.29-0.3,0.65-0.44,1.08-0.44h58.63c0.42,0,0.78,0.15,1.08,0.44c0.29,0.3,0.44,0.66,0.44,1.08v12.31
							C2464.21,933.86,2464.06,934.22,2463.77,934.52z"/>
						<path class="st0" d="M2577.08,920.05c0.3,0.3,0.45,0.66,0.45,1.08v12.43c0,0.42-0.15,0.79-0.45,1.08
							c-0.3,0.3-0.65,0.45-1.08,0.45h-22.72c-0.42,0-0.63,0.21-0.63,0.63v71.19c0,0.42-0.15,0.79-0.44,1.08
							c-0.3,0.3-0.66,0.44-1.08,0.44h-14.85c-0.42,0-0.78-0.15-1.08-0.44c-0.3-0.3-0.45-0.66-0.45-1.08v-71.19
							c0-0.42-0.21-0.63-0.63-0.63h-22.08c-0.42,0-0.78-0.15-1.08-0.45c-0.3-0.29-0.45-0.65-0.45-1.08v-12.43
							c0-0.42,0.15-0.79,0.45-1.08c0.3-0.3,0.65-0.44,1.08-0.44h63.96C2576.43,919.6,2576.79,919.75,2577.08,920.05z"/>
						<path class="st0" d="M2656.52,934.52c-0.3,0.3-0.66,0.44-1.08,0.44h-41.62c-0.42,0-0.63,0.21-0.63,0.63v19.67
							c0,0.42,0.21,0.63,0.63,0.63h27.28c0.42,0,0.78,0.15,1.08,0.44c0.29,0.3,0.44,0.66,0.44,1.08v12.31c0,0.42-0.15,0.78-0.44,1.08
							c-0.3,0.3-0.66,0.45-1.08,0.45h-27.28c-0.42,0-0.63,0.21-0.63,0.63v20.56c0,0.42,0.21,0.63,0.63,0.63h41.62
							c0.42,0,0.78,0.15,1.08,0.44c0.29,0.3,0.44,0.66,0.44,1.08v12.31c0,0.42-0.15,0.79-0.44,1.08c-0.3,0.3-0.66,0.44-1.08,0.44
							h-58.63c-0.42,0-0.78-0.15-1.08-0.44c-0.3-0.3-0.45-0.66-0.45-1.08v-85.78c0-0.42,0.15-0.79,0.45-1.08
							c0.29-0.3,0.65-0.44,1.08-0.44h58.63c0.42,0,0.78,0.15,1.08,0.44c0.29,0.3,0.44,0.66,0.44,1.08v12.31
							C2656.97,933.86,2656.82,934.22,2656.52,934.52z"/>
						<path class="st0" d="M2689.58,1005.58c-4.99-2.58-8.84-6.2-11.55-10.85c-2.71-4.65-4.06-10.02-4.06-16.11v-29.32
							c0-6.09,1.35-11.46,4.06-16.11c2.71-4.65,6.55-8.25,11.55-10.79c4.99-2.54,10.79-3.81,17.39-3.81c6.51,0,12.25,1.21,17.2,3.62
							c4.95,2.41,8.8,5.84,11.55,10.28c2.75,4.44,4.13,9.58,4.13,15.42c0,0.76-0.51,1.22-1.52,1.39l-14.85,0.89h-0.25
							c-0.85,0-1.27-0.47-1.27-1.4c0-4.48-1.38-8.08-4.13-10.79c-2.75-2.71-6.37-4.06-10.85-4.06c-4.57,0-8.23,1.36-10.98,4.06
							c-2.75,2.71-4.12,6.31-4.12,10.79v30.58c0,4.4,1.37,7.95,4.12,10.66c2.75,2.71,6.41,4.06,10.98,4.06c4.48,0,8.1-1.35,10.85-4.06
							c2.75-2.71,4.13-6.26,4.13-10.66c0-0.93,0.51-1.39,1.52-1.39l14.85,0.63c0.42,0,0.78,0.12,1.08,0.38
							c0.3,0.26,0.45,0.55,0.45,0.89c0,5.84-1.38,11-4.13,15.48c-2.75,4.48-6.6,7.95-11.55,10.4s-10.68,3.68-17.2,3.68
							C2700.36,1009.44,2694.57,1008.16,2689.58,1005.58z"/>
						<path class="st0" d="M2810.7,920.05c0.29-0.3,0.65-0.44,1.08-0.44h14.85c0.42,0,0.78,0.15,1.08,0.44c0.3,0.3,0.45,0.66,0.45,1.08
							v85.78c0,0.42-0.15,0.79-0.45,1.08c-0.3,0.3-0.66,0.44-1.08,0.44h-14.34c-0.85,0-1.44-0.34-1.78-1.01l-32.86-54.31
							c-0.17-0.26-0.34-0.36-0.51-0.32c-0.17,0.05-0.25,0.23-0.25,0.57l0.25,53.55c0,0.42-0.15,0.79-0.44,1.08
							c-0.3,0.3-0.66,0.44-1.08,0.44h-14.85c-0.42,0-0.78-0.15-1.08-0.44c-0.3-0.3-0.45-0.66-0.45-1.08v-85.78
							c0-0.42,0.15-0.79,0.45-1.08c0.29-0.3,0.65-0.44,1.08-0.44h14.34c0.85,0,1.44,0.34,1.78,1.01l32.74,54.06
							c0.17,0.26,0.34,0.37,0.51,0.32c0.17-0.04,0.25-0.23,0.25-0.57l-0.13-53.3C2810.26,920.7,2810.41,920.34,2810.7,920.05z"/>
						<path class="st0" d="M2864.13,1005.77c-5.04-2.71-8.95-6.49-11.74-11.36c-2.79-4.86-4.19-10.47-4.19-16.81v-27.15
							c0-6.26,1.4-11.81,4.19-16.62c2.79-4.82,6.7-8.57,11.74-11.24c5.03-2.66,10.85-4,17.45-4c6.68,0,12.54,1.33,17.58,4
							c5.03,2.66,8.95,6.41,11.74,11.24c2.79,4.82,4.19,10.36,4.19,16.62v27.15c0,6.35-1.4,11.97-4.19,16.88
							c-2.79,4.9-6.71,8.69-11.74,11.36c-5.04,2.66-10.89,4-17.58,4C2874.98,1009.83,2869.16,1008.47,2864.13,1005.77z M2892.87,990.03
							c2.87-2.96,4.31-6.89,4.31-11.81v-27.92c0-4.9-1.42-8.86-4.25-11.86s-6.62-4.51-11.36-4.51c-4.65,0-8.4,1.51-11.23,4.51
							c-2.84,3-4.25,6.96-4.25,11.86v27.92c0,4.91,1.41,8.84,4.25,11.81c2.83,2.96,6.58,4.44,11.23,4.44S2889.99,993,2892.87,990.03z"
							/>
						<path class="st0" d="M2935.57,1007.99c-0.3-0.3-0.45-0.66-0.45-1.08v-85.78c0-0.42,0.15-0.79,0.45-1.08
							c0.29-0.3,0.65-0.44,1.08-0.44h14.85c0.42,0,0.78,0.15,1.08,0.44c0.29,0.3,0.44,0.66,0.44,1.08v71.32c0,0.42,0.21,0.63,0.63,0.63
							h41.5c0.42,0,0.78,0.15,1.08,0.44c0.3,0.3,0.45,0.66,0.45,1.08v12.31c0,0.42-0.15,0.79-0.45,1.08c-0.3,0.3-0.66,0.44-1.08,0.44
							h-58.5C2936.22,1008.43,2935.86,1008.29,2935.57,1007.99z"/>
						<path class="st0" d="M3027.19,1005.77c-5.04-2.71-8.95-6.49-11.74-11.36c-2.79-4.86-4.19-10.47-4.19-16.81v-27.15
							c0-6.26,1.4-11.81,4.19-16.62c2.79-4.82,6.7-8.57,11.74-11.24c5.03-2.66,10.85-4,17.45-4c6.68,0,12.54,1.33,17.58,4
							c5.03,2.66,8.95,6.41,11.74,11.24c2.79,4.82,4.19,10.36,4.19,16.62v27.15c0,6.35-1.4,11.97-4.19,16.88
							c-2.79,4.9-6.71,8.69-11.74,11.36c-5.04,2.66-10.89,4-17.58,4C3038.04,1009.83,3032.22,1008.47,3027.19,1005.77z M3055.93,990.03
							c2.87-2.96,4.31-6.89,4.31-11.81v-27.92c0-4.9-1.42-8.86-4.25-11.86s-6.62-4.51-11.36-4.51c-4.65,0-8.4,1.51-11.23,4.51
							c-2.84,3-4.25,6.96-4.25,11.86v27.92c0,4.91,1.41,8.84,4.25,11.81c2.83,2.96,6.58,4.44,11.23,4.44
							C3049.29,994.47,3053.05,993,3055.93,990.03z"/>
						<path class="st0" d="M3112.14,1005.51c-4.99-2.62-8.86-6.28-11.61-10.97c-2.75-4.7-4.13-10.13-4.13-16.31v-28.42
							c0-6.18,1.37-11.63,4.13-16.37c2.75-4.74,6.62-8.4,11.61-10.97c4.99-2.58,10.74-3.88,17.26-3.88c6.43,0,12.12,1.27,17.07,3.81
							c4.95,2.54,8.8,5.99,11.55,10.34c2.75,4.36,4.13,9.2,4.13,14.53v0.89c0,0.42-0.15,0.79-0.45,1.08c-0.3,0.3-0.66,0.44-1.08,0.44
							h-14.85c-0.42,0-0.78-0.15-1.08-0.44c-0.3-0.3-0.45-0.66-0.45-1.08v-0.38c0-3.89-1.35-7.17-4.06-9.84c-2.71-2.66-6.3-4-10.79-4
							c-4.57,0-8.23,1.42-10.98,4.25c-2.75,2.83-4.12,6.53-4.12,11.1v29.44c0,4.57,1.48,8.27,4.44,11.11c2.96,2.83,6.73,4.25,11.3,4.25
							c4.4,0,7.91-1.16,10.53-3.49c2.62-2.33,3.93-5.56,3.93-9.71v-5.71c0-0.42-0.21-0.63-0.63-0.63h-14.21
							c-0.42,0-0.79-0.15-1.08-0.45c-0.3-0.29-0.45-0.65-0.45-1.08v-11.68c0-0.42,0.15-0.78,0.45-1.08c0.29-0.3,0.65-0.44,1.08-0.44
							h30.96c0.42,0,0.78,0.15,1.08,0.44c0.29,0.3,0.45,0.66,0.45,1.08v16.75c0,6.44-1.36,12.01-4.06,16.75
							c-2.71,4.74-6.54,8.36-11.49,10.85c-4.95,2.5-10.68,3.74-17.2,3.74C3122.89,1009.44,3117.14,1008.14,3112.14,1005.51z"/>
						<path class="st0" d="M3182.64,1007.99c-0.3-0.3-0.45-0.66-0.45-1.08v-85.78c0-0.42,0.15-0.79,0.45-1.08
							c0.29-0.3,0.65-0.44,1.08-0.44h14.85c0.42,0,0.78,0.15,1.08,0.44c0.29,0.3,0.44,0.66,0.44,1.08v85.78c0,0.42-0.15,0.79-0.44,1.08
							c-0.3,0.3-0.66,0.44-1.08,0.44h-14.85C3183.29,1008.43,3182.93,1008.29,3182.64,1007.99z"/>
						<path class="st0" d="M3283.14,934.52c-0.3,0.3-0.66,0.44-1.08,0.44h-41.62c-0.42,0-0.63,0.21-0.63,0.63v19.67
							c0,0.42,0.21,0.63,0.63,0.63h27.29c0.42,0,0.78,0.15,1.08,0.44c0.29,0.3,0.44,0.66,0.44,1.08v12.31c0,0.42-0.15,0.78-0.44,1.08
							c-0.3,0.3-0.66,0.45-1.08,0.45h-27.29c-0.42,0-0.63,0.21-0.63,0.63v20.56c0,0.42,0.21,0.63,0.63,0.63h41.62
							c0.42,0,0.78,0.15,1.08,0.44c0.29,0.3,0.44,0.66,0.44,1.08v12.31c0,0.42-0.15,0.79-0.44,1.08c-0.3,0.3-0.66,0.44-1.08,0.44
							h-58.63c-0.42,0-0.78-0.15-1.08-0.44c-0.3-0.3-0.45-0.66-0.45-1.08v-85.78c0-0.42,0.15-0.79,0.45-1.08
							c0.29-0.3,0.65-0.44,1.08-0.44h58.63c0.42,0,0.78,0.15,1.08,0.44c0.29,0.3,0.44,0.66,0.44,1.08v12.31
							C3283.58,933.86,3283.43,934.22,3283.14,934.52z"/>
						<path class="st0" d="M3299.83,1019.22l4.19-29.44c0.08-0.93,0.63-1.4,1.65-1.4h12.94c1.1,0,1.52,0.55,1.27,1.65l-7.87,29.56
							c-0.25,0.84-0.85,1.27-1.78,1.27h-9.01C3300.21,1020.87,3299.74,1020.32,3299.83,1019.22z"/>
						<path class="st0" d="M201.32,1193.28c-0.3-0.3-0.45-0.66-0.45-1.08v-85.78c0-0.42,0.15-0.79,0.45-1.08
							c0.29-0.3,0.65-0.44,1.08-0.44h14.85c0.42,0,0.78,0.15,1.08,0.44c0.29,0.3,0.44,0.66,0.44,1.08v71.32c0,0.42,0.21,0.63,0.63,0.63
							h41.5c0.42,0,0.78,0.15,1.08,0.44c0.3,0.3,0.45,0.66,0.45,1.08v12.31c0,0.42-0.15,0.79-0.45,1.08c-0.3,0.3-0.66,0.44-1.08,0.44
							h-58.5C201.97,1193.72,201.61,1193.58,201.32,1193.28z"/>
						<path class="st0" d="M263.44,1133.25c-0.34-0.29-0.51-0.65-0.51-1.08l-1.65-25.64c0-1.01,0.47-1.52,1.4-1.52h15.1
							c1.1,0,1.57,0.51,1.4,1.52l-1.65,25.64c0,0.51-0.15,0.89-0.45,1.14c-0.3,0.26-0.7,0.38-1.2,0.38h-11.3
							C264.16,1133.7,263.77,1133.55,263.44,1133.25z"/>
						<path class="st0" d="M356.01,1119.81c-0.3,0.3-0.66,0.44-1.08,0.44h-41.62c-0.42,0-0.63,0.21-0.63,0.63v19.67
							c0,0.42,0.21,0.63,0.63,0.63h27.29c0.42,0,0.78,0.15,1.08,0.44c0.29,0.3,0.44,0.66,0.44,1.08v12.31c0,0.42-0.15,0.78-0.44,1.08
							c-0.3,0.3-0.66,0.45-1.08,0.45h-27.29c-0.42,0-0.63,0.21-0.63,0.63v20.56c0,0.42,0.21,0.63,0.63,0.63h41.62
							c0.42,0,0.78,0.15,1.08,0.44c0.29,0.3,0.44,0.66,0.44,1.08v12.31c0,0.42-0.15,0.79-0.44,1.08c-0.3,0.3-0.66,0.44-1.08,0.44H296.3
							c-0.42,0-0.78-0.15-1.08-0.44c-0.3-0.3-0.45-0.66-0.45-1.08v-85.78c0-0.42,0.15-0.79,0.45-1.08c0.29-0.3,0.65-0.44,1.08-0.44
							h58.63c0.42,0,0.78,0.15,1.08,0.44c0.29,0.3,0.44,0.66,0.44,1.08v12.31C356.45,1119.15,356.3,1119.51,356.01,1119.81z"/>
						<path class="st0" d="M426.69,1105.34c0.29-0.3,0.65-0.44,1.08-0.44h14.85c0.42,0,0.78,0.15,1.08,0.44
							c0.3,0.3,0.45,0.66,0.45,1.08v85.78c0,0.42-0.15,0.79-0.45,1.08c-0.3,0.3-0.66,0.44-1.08,0.44h-14.34
							c-0.85,0-1.44-0.34-1.78-1.01l-32.86-54.31c-0.17-0.26-0.34-0.36-0.51-0.32c-0.17,0.05-0.25,0.23-0.25,0.57l0.25,53.55
							c0,0.42-0.15,0.79-0.44,1.08c-0.3,0.3-0.66,0.44-1.08,0.44h-14.85c-0.42,0-0.78-0.15-1.08-0.44c-0.3-0.3-0.45-0.66-0.45-1.08
							v-85.78c0-0.42,0.15-0.79,0.45-1.08c0.29-0.3,0.65-0.44,1.08-0.44h14.34c0.85,0,1.44,0.34,1.78,1.01l32.74,54.06
							c0.17,0.26,0.34,0.37,0.51,0.32c0.17-0.04,0.25-0.23,0.25-0.57l-0.13-53.3C426.25,1105.99,426.39,1105.63,426.69,1105.34z"/>
						<path class="st0" d="M526.43,1119.81c-0.3,0.3-0.66,0.44-1.08,0.44h-41.62c-0.42,0-0.63,0.21-0.63,0.63v19.67
							c0,0.42,0.21,0.63,0.63,0.63h27.29c0.42,0,0.78,0.15,1.08,0.44c0.29,0.3,0.44,0.66,0.44,1.08v12.31c0,0.42-0.15,0.78-0.44,1.08
							c-0.3,0.3-0.66,0.45-1.08,0.45h-27.29c-0.42,0-0.63,0.21-0.63,0.63v20.56c0,0.42,0.21,0.63,0.63,0.63h41.62
							c0.42,0,0.78,0.15,1.08,0.44c0.29,0.3,0.44,0.66,0.44,1.08v12.31c0,0.42-0.15,0.79-0.44,1.08c-0.3,0.3-0.66,0.44-1.08,0.44
							h-58.63c-0.42,0-0.78-0.15-1.08-0.44c-0.3-0.3-0.45-0.66-0.45-1.08v-85.78c0-0.42,0.15-0.79,0.45-1.08
							c0.29-0.3,0.65-0.44,1.08-0.44h58.63c0.42,0,0.78,0.15,1.08,0.44c0.29,0.3,0.44,0.66,0.44,1.08v12.31
							C526.88,1119.15,526.73,1119.51,526.43,1119.81z"/>
						<path class="st0" d="M592.61,1192.58l-15.86-35.15c-0.17-0.34-0.42-0.51-0.76-0.51h-11.8c-0.42,0-0.63,0.22-0.63,0.63v34.64
							c0,0.42-0.15,0.79-0.44,1.08c-0.3,0.3-0.66,0.44-1.08,0.44h-14.85c-0.42,0-0.78-0.15-1.08-0.44c-0.3-0.3-0.45-0.66-0.45-1.08
							v-85.78c0-0.42,0.15-0.79,0.45-1.08c0.29-0.3,0.65-0.44,1.08-0.44h36.29c5.41,0,10.17,1.1,14.28,3.3c4.1,2.2,7.28,5.33,9.52,9.39
							c2.24,4.06,3.36,8.76,3.36,14.09c0,5.75-1.44,10.68-4.31,14.78s-6.89,7-12.06,8.69c-0.42,0.17-0.55,0.47-0.38,0.88l17.26,35.92
							c0.17,0.34,0.25,0.59,0.25,0.76c0,0.67-0.47,1.01-1.4,1.01h-15.61C593.54,1193.72,592.95,1193.34,592.61,1192.58z
							 M563.55,1120.88v21.7c0,0.42,0.21,0.64,0.63,0.64h16.63c3.55,0,6.45-1.06,8.69-3.18c2.24-2.11,3.36-4.86,3.36-8.24
							c0-3.39-1.12-6.16-3.36-8.31c-2.24-2.16-5.14-3.23-8.69-3.23h-16.63C563.76,1120.25,563.55,1120.46,563.55,1120.88z"/>
						<path class="st0" d="M643.88,1190.8c-4.99-2.62-8.86-6.28-11.61-10.97c-2.75-4.7-4.13-10.13-4.13-16.31v-28.42
							c0-6.18,1.37-11.63,4.13-16.37c2.75-4.74,6.62-8.4,11.61-10.97c4.99-2.58,10.74-3.88,17.26-3.88c6.43,0,12.12,1.27,17.07,3.81
							c4.95,2.54,8.8,5.99,11.55,10.34c2.75,4.36,4.13,9.2,4.13,14.53v0.89c0,0.42-0.15,0.79-0.45,1.08c-0.3,0.3-0.66,0.44-1.08,0.44
							H677.5c-0.42,0-0.78-0.15-1.08-0.44c-0.3-0.3-0.45-0.66-0.45-1.08v-0.38c0-3.89-1.35-7.17-4.06-9.84s-6.3-4-10.79-4
							c-4.57,0-8.23,1.42-10.98,4.25s-4.12,6.53-4.12,11.1v29.44c0,4.57,1.48,8.27,4.44,11.11c2.96,2.83,6.73,4.25,11.3,4.25
							c4.4,0,7.91-1.16,10.53-3.49c2.62-2.33,3.93-5.56,3.93-9.71v-5.71c0-0.42-0.21-0.63-0.63-0.63h-14.21
							c-0.42,0-0.79-0.15-1.08-0.45c-0.3-0.29-0.45-0.65-0.45-1.08v-11.68c0-0.42,0.15-0.78,0.45-1.08c0.29-0.3,0.65-0.44,1.08-0.44
							h30.96c0.42,0,0.78,0.15,1.08,0.44c0.29,0.3,0.45,0.66,0.45,1.08v16.75c0,6.44-1.36,12.01-4.06,16.75
							c-2.71,4.74-6.54,8.36-11.49,10.85c-4.95,2.5-10.68,3.74-17.2,3.74S648.87,1193.43,643.88,1190.8z"/>
						<path class="st0" d="M714.37,1193.28c-0.3-0.3-0.45-0.66-0.45-1.08v-85.78c0-0.42,0.15-0.79,0.45-1.08
							c0.29-0.3,0.65-0.44,1.08-0.44h14.85c0.42,0,0.78,0.15,1.08,0.44c0.29,0.3,0.44,0.66,0.44,1.08v85.78c0,0.42-0.15,0.79-0.44,1.08
							c-0.3,0.3-0.66,0.44-1.08,0.44h-14.85C715.02,1193.72,714.67,1193.58,714.37,1193.28z"/>
						<path class="st0" d="M808.46,1192.45l-3.81-12.44c-0.17-0.33-0.38-0.51-0.63-0.51H772.8c-0.26,0-0.47,0.17-0.64,0.51l-3.68,12.44
							c-0.25,0.84-0.8,1.27-1.65,1.27h-16.11c-0.51,0-0.89-0.15-1.14-0.44s-0.3-0.74-0.13-1.33l27.41-85.79
							c0.26-0.84,0.8-1.27,1.65-1.27h19.92c0.84,0,1.4,0.42,1.65,1.27l27.41,85.79c0.08,0.17,0.13,0.38,0.13,0.63
							c0,0.76-0.47,1.14-1.4,1.14h-16.12C809.27,1193.72,808.72,1193.3,808.46,1192.45z M777.24,1165.68h22.33
							c0.51,0,0.68-0.26,0.51-0.76l-11.42-37.69c-0.08-0.33-0.21-0.48-0.38-0.44c-0.17,0.05-0.3,0.19-0.38,0.44l-11.17,37.69
							C776.65,1165.42,776.82,1165.68,777.24,1165.68z"/>
						<path class="st0" d="M938.09,1119.81c-0.3,0.3-0.66,0.44-1.08,0.44h-41.62c-0.42,0-0.63,0.21-0.63,0.63v19.67
							c0,0.42,0.21,0.63,0.63,0.63h27.28c0.42,0,0.78,0.15,1.08,0.44c0.29,0.3,0.44,0.66,0.44,1.08v12.31c0,0.42-0.15,0.78-0.44,1.08
							c-0.3,0.3-0.66,0.45-1.08,0.45h-27.28c-0.42,0-0.63,0.21-0.63,0.63v20.56c0,0.42,0.21,0.63,0.63,0.63h41.62
							c0.42,0,0.78,0.15,1.08,0.44c0.29,0.3,0.44,0.66,0.44,1.08v12.31c0,0.42-0.15,0.79-0.44,1.08c-0.3,0.3-0.66,0.44-1.08,0.44
							h-58.63c-0.42,0-0.78-0.15-1.08-0.44c-0.3-0.3-0.45-0.66-0.45-1.08v-85.78c0-0.42,0.15-0.79,0.45-1.08
							c0.29-0.3,0.65-0.44,1.08-0.44h58.63c0.42,0,0.78,0.15,1.08,0.44c0.29,0.3,0.44,0.66,0.44,1.08v12.31
							C938.53,1119.15,938.38,1119.51,938.09,1119.81z"/>
						<path class="st0" d="M989.48,1193.28c-0.3-0.3-0.45-0.66-0.45-1.08v-85.78c0-0.42,0.15-0.79,0.45-1.08
							c0.29-0.3,0.65-0.44,1.08-0.44h14.85c0.42,0,0.78,0.15,1.08,0.44c0.29,0.3,0.44,0.66,0.44,1.08v71.32c0,0.42,0.21,0.63,0.63,0.63
							h41.5c0.42,0,0.78,0.15,1.08,0.44c0.3,0.3,0.45,0.66,0.45,1.08v12.31c0,0.42-0.15,0.79-0.45,1.08s-0.66,0.44-1.08,0.44h-58.5
							C990.14,1193.72,989.78,1193.58,989.48,1193.28z"/>
						<path class="st0" d="M1081.1,1191.06c-5.04-2.71-8.95-6.49-11.74-11.36c-2.79-4.86-4.19-10.47-4.19-16.81v-27.15
							c0-6.26,1.4-11.81,4.19-16.62c2.79-4.82,6.7-8.57,11.74-11.24c5.03-2.66,10.85-4,17.45-4c6.68,0,12.54,1.33,17.58,4
							c5.03,2.66,8.95,6.41,11.74,11.24c2.79,4.82,4.19,10.36,4.19,16.62v27.15c0,6.35-1.4,11.97-4.19,16.88
							c-2.79,4.9-6.71,8.69-11.74,11.36c-5.04,2.66-10.89,4-17.58,4C1091.95,1195.12,1086.13,1193.76,1081.1,1191.06z M1109.85,1175.32
							c2.87-2.96,4.31-6.89,4.31-11.81v-27.92c0-4.9-1.42-8.86-4.25-11.86c-2.83-3-6.62-4.51-11.36-4.51c-4.65,0-8.4,1.51-11.23,4.51
							c-2.84,3-4.25,6.96-4.25,11.86v27.92c0,4.91,1.41,8.84,4.25,11.81c2.83,2.96,6.58,4.44,11.23,4.44
							S1106.97,1178.29,1109.85,1175.32z"/>
						<path class="st0" d="M1196.52,1191.5c-5.08-2.15-8.99-5.24-11.74-9.26c-2.75-4.01-4.13-8.69-4.13-14.02v-2.79
							c0-0.42,0.15-0.78,0.45-1.08s0.65-0.44,1.08-0.44h14.47c0.42,0,0.78,0.15,1.08,0.44s0.45,0.66,0.45,1.08v1.9
							c0,3.39,1.57,6.24,4.7,8.57c3.13,2.33,7.36,3.49,12.69,3.49c4.48,0,7.82-0.95,10.03-2.85c2.2-1.9,3.3-4.25,3.3-7.05
							c0-2.03-0.68-3.74-2.03-5.14c-1.35-1.4-3.19-2.62-5.52-3.68c-2.33-1.05-6.03-2.51-11.1-4.38c-5.67-1.94-10.47-3.93-14.4-5.96
							c-3.93-2.03-7.23-4.8-9.9-8.31c-2.66-3.51-4-7.84-4-13c0-5.08,1.31-9.52,3.93-13.32c2.62-3.81,6.26-6.73,10.91-8.76
							c4.65-2.03,10.03-3.05,16.12-3.05c6.43,0,12.16,1.15,17.19,3.43c5.03,2.29,8.97,5.48,11.8,9.58c2.83,4.1,4.25,8.86,4.25,14.28
							v1.9c0,0.42-0.15,0.78-0.44,1.08c-0.3,0.3-0.66,0.44-1.08,0.44h-14.59c-0.42,0-0.79-0.15-1.08-0.44c-0.3-0.3-0.45-0.65-0.45-1.08
							v-1.02c0-3.55-1.46-6.57-4.38-9.07c-2.92-2.5-6.92-3.75-11.99-3.75c-3.98,0-7.09,0.85-9.33,2.54c-2.24,1.69-3.36,4.01-3.36,6.98
							c0,2.12,0.65,3.89,1.97,5.33c1.31,1.44,3.26,2.73,5.84,3.87c2.58,1.15,6.58,2.69,11.99,4.63c6,2.21,10.72,4.15,14.15,5.84
							c3.42,1.69,6.51,4.21,9.26,7.55c2.75,3.35,4.13,7.68,4.13,13.01c0,7.95-2.92,14.24-8.76,18.85c-5.84,4.61-13.75,6.91-23.73,6.91
							C1207.51,1194.73,1201.59,1193.66,1196.52,1191.5z"/>
						<path class="st0" d="M1284.96,1192.45l-26.14-85.79l-0.13-0.51c0-0.84,0.46-1.27,1.4-1.27h15.99c0.93,0,1.52,0.42,1.77,1.27
							l16.88,61.92c0.08,0.26,0.21,0.38,0.38,0.38c0.17,0,0.29-0.13,0.38-0.38l16.62-61.92c0.25-0.84,0.84-1.27,1.78-1.27h15.61
							c0.51,0,0.89,0.17,1.14,0.51c0.25,0.34,0.29,0.76,0.13,1.27l-26.52,85.79c-0.25,0.84-0.8,1.27-1.65,1.27h-15.99
							C1285.77,1193.72,1285.22,1193.3,1284.96,1192.45z"/>
						<path class="st0" d="M1348.73,1193.28c-0.3-0.3-0.45-0.66-0.45-1.08v-85.78c0-0.42,0.15-0.79,0.45-1.08
							c0.29-0.3,0.65-0.44,1.08-0.44h14.85c0.42,0,0.78,0.15,1.08,0.44c0.29,0.3,0.44,0.66,0.44,1.08v85.78c0,0.42-0.15,0.79-0.44,1.08
							c-0.3,0.3-0.66,0.44-1.08,0.44h-14.85C1349.38,1193.72,1349.02,1193.58,1348.73,1193.28z"/>
						<path class="st0" d="M1388.45,1193.28c-0.3-0.3-0.45-0.66-0.45-1.08v-85.78c0-0.42,0.15-0.79,0.45-1.08
							c0.29-0.3,0.65-0.44,1.08-0.44h14.85c0.42,0,0.78,0.15,1.08,0.44c0.29,0.3,0.44,0.66,0.44,1.08v71.32c0,0.42,0.21,0.63,0.63,0.63
							h41.5c0.42,0,0.78,0.15,1.08,0.44c0.3,0.3,0.45,0.66,0.45,1.08v12.31c0,0.42-0.15,0.79-0.45,1.08s-0.66,0.44-1.08,0.44h-58.5
							C1389.1,1193.72,1388.74,1193.58,1388.45,1193.28z"/>
						<path class="st0" d="M1481.97,1190.93c-4.95-2.54-8.8-6.11-11.55-10.72c-2.75-4.61-4.12-9.91-4.12-15.92v-57.86
							c0-0.42,0.15-0.79,0.44-1.08s0.65-0.44,1.08-0.44h14.85c0.42,0,0.78,0.15,1.08,0.44c0.29,0.3,0.44,0.66,0.44,1.08v57.99
							c0,4.49,1.38,8.1,4.13,10.85c2.75,2.75,6.37,4.12,10.85,4.12c4.48,0,8.1-1.37,10.85-4.12c2.75-2.75,4.13-6.37,4.13-10.85v-57.99
							c0-0.42,0.15-0.79,0.44-1.08s0.65-0.44,1.08-0.44h14.85c0.42,0,0.78,0.15,1.08,0.44c0.3,0.3,0.45,0.66,0.45,1.08v57.86
							c0,6.01-1.38,11.32-4.13,15.92c-2.75,4.61-6.6,8.19-11.55,10.72c-4.95,2.54-10.68,3.81-17.2,3.81
							C1492.65,1194.73,1486.92,1193.47,1481.97,1190.93z"/>
						<path class="st0" d="M1604.49,1108.19c4.23,2.29,7.51,5.52,9.84,9.7c2.32,4.19,3.49,9,3.49,14.41c0,5.33-1.2,10.03-3.62,14.09
							s-5.8,7.21-10.15,9.45c-4.36,2.24-9.37,3.36-15.04,3.36h-18.02c-0.42,0-0.63,0.21-0.63,0.63v32.36c0,0.42-0.15,0.79-0.44,1.08
							c-0.3,0.3-0.66,0.44-1.08,0.44h-14.85c-0.42,0-0.78-0.15-1.08-0.44s-0.44-0.66-0.44-1.08v-85.91c0-0.42,0.15-0.79,0.44-1.08
							c0.3-0.29,0.65-0.44,1.08-0.44h35.79C1595.35,1104.77,1600.26,1105.91,1604.49,1108.19z M1596.49,1141.5
							c2.37-2.24,3.55-5.18,3.55-8.82c0-3.72-1.18-6.73-3.55-9.01c-2.37-2.29-5.5-3.43-9.39-3.43h-16.12c-0.42,0-0.63,0.21-0.63,0.63
							v23.35c0,0.42,0.21,0.63,0.63,0.63h16.12C1590.99,1144.87,1594.12,1143.75,1596.49,1141.5z"/>
						<path class="st0" d="M1686.59,1108.19c4.23,2.29,7.51,5.52,9.84,9.7c2.32,4.19,3.49,9,3.49,14.41c0,5.33-1.2,10.03-3.62,14.09
							c-2.41,4.06-5.8,7.21-10.15,9.45c-4.36,2.24-9.37,3.36-15.04,3.36h-18.02c-0.42,0-0.63,0.21-0.63,0.63v32.36
							c0,0.42-0.15,0.79-0.44,1.08c-0.3,0.3-0.66,0.44-1.08,0.44h-14.85c-0.42,0-0.78-0.15-1.08-0.44s-0.44-0.66-0.44-1.08v-85.91
							c0-0.42,0.15-0.79,0.44-1.08c0.3-0.29,0.65-0.44,1.08-0.44h35.79C1677.45,1104.77,1682.36,1105.91,1686.59,1108.19z
							 M1678.59,1141.5c2.37-2.24,3.55-5.18,3.55-8.82c0-3.72-1.18-6.73-3.55-9.01c-2.37-2.29-5.5-3.43-9.39-3.43h-16.12
							c-0.42,0-0.63,0.21-0.63,0.63v23.35c0,0.42,0.21,0.63,0.63,0.63h16.12C1673.09,1144.87,1676.23,1143.75,1678.59,1141.5z"/>
						<path class="st0" d="M1731.45,1191.06c-5.04-2.71-8.95-6.49-11.74-11.36c-2.79-4.86-4.19-10.47-4.19-16.81v-27.15
							c0-6.26,1.4-11.81,4.19-16.62c2.79-4.82,6.7-8.57,11.74-11.24c5.03-2.66,10.85-4,17.45-4c6.68,0,12.54,1.33,17.58,4
							c5.03,2.66,8.95,6.41,11.74,11.24c2.79,4.82,4.19,10.36,4.19,16.62v27.15c0,6.35-1.4,11.97-4.19,16.88
							c-2.79,4.9-6.71,8.69-11.74,11.36c-5.04,2.66-10.89,4-17.58,4C1742.3,1195.12,1736.48,1193.76,1731.45,1191.06z M1760.19,1175.32
							c2.87-2.96,4.31-6.89,4.31-11.81v-27.92c0-4.9-1.42-8.86-4.25-11.86c-2.83-3-6.62-4.51-11.36-4.51c-4.65,0-8.4,1.51-11.23,4.51
							c-2.84,3-4.25,6.96-4.25,11.86v27.92c0,4.91,1.41,8.84,4.25,11.81c2.83,2.96,6.58,4.44,11.23,4.44
							S1757.31,1178.29,1760.19,1175.32z"/>
						<path class="st0" d="M1895.4,1119.81c-0.3,0.3-0.66,0.44-1.08,0.44h-41.62c-0.42,0-0.63,0.21-0.63,0.63v19.67
							c0,0.42,0.21,0.63,0.63,0.63h27.28c0.42,0,0.78,0.15,1.08,0.44c0.29,0.3,0.44,0.66,0.44,1.08v12.31c0,0.42-0.15,0.78-0.44,1.08
							c-0.3,0.3-0.66,0.45-1.08,0.45h-27.28c-0.42,0-0.63,0.21-0.63,0.63v20.56c0,0.42,0.21,0.63,0.63,0.63h41.62
							c0.42,0,0.78,0.15,1.08,0.44c0.29,0.3,0.44,0.66,0.44,1.08v12.31c0,0.42-0.15,0.79-0.44,1.08c-0.3,0.3-0.66,0.44-1.08,0.44
							h-58.63c-0.42,0-0.78-0.15-1.08-0.44c-0.3-0.3-0.45-0.66-0.45-1.08v-85.78c0-0.42,0.15-0.79,0.45-1.08
							c0.29-0.3,0.65-0.44,1.08-0.44h58.63c0.42,0,0.78,0.15,1.08,0.44c0.29,0.3,0.44,0.66,0.44,1.08v12.31
							C1895.84,1119.15,1895.69,1119.51,1895.4,1119.81z"/>
						<path class="st0" d="M1928.45,1190.87c-4.99-2.58-8.84-6.2-11.55-10.85c-2.71-4.65-4.06-10.02-4.06-16.11v-29.32
							c0-6.09,1.35-11.46,4.06-16.11c2.71-4.65,6.55-8.25,11.55-10.79c4.99-2.54,10.79-3.81,17.39-3.81c6.51,0,12.25,1.21,17.2,3.62
							s8.8,5.84,11.55,10.28c2.75,4.44,4.13,9.58,4.13,15.42c0,0.76-0.51,1.22-1.52,1.39l-14.85,0.89h-0.25c-0.85,0-1.27-0.47-1.27-1.4
							c0-4.48-1.38-8.08-4.13-10.79c-2.75-2.71-6.37-4.06-10.85-4.06c-4.57,0-8.23,1.36-10.98,4.06c-2.75,2.71-4.12,6.31-4.12,10.79
							v30.58c0,4.4,1.37,7.95,4.12,10.66c2.75,2.71,6.41,4.06,10.98,4.06c4.48,0,8.1-1.35,10.85-4.06c2.75-2.71,4.13-6.26,4.13-10.66
							c0-0.93,0.51-1.39,1.52-1.39l14.85,0.63c0.42,0,0.78,0.12,1.08,0.38c0.3,0.26,0.45,0.55,0.45,0.89c0,5.84-1.38,11-4.13,15.48
							c-2.75,4.48-6.6,7.95-11.55,10.4s-10.68,3.68-17.2,3.68C1939.24,1194.73,1933.45,1193.45,1928.45,1190.87z"/>
						<path class="st0" d="M2012.27,1191.06c-5.04-2.71-8.95-6.49-11.74-11.36c-2.79-4.86-4.19-10.47-4.19-16.81v-27.15
							c0-6.26,1.4-11.81,4.19-16.62c2.79-4.82,6.7-8.57,11.74-11.24c5.03-2.66,10.85-4,17.45-4c6.68,0,12.54,1.33,17.58,4
							c5.03,2.66,8.95,6.41,11.74,11.24c2.79,4.82,4.19,10.36,4.19,16.62v27.15c0,6.35-1.4,11.97-4.19,16.88
							c-2.79,4.9-6.71,8.69-11.74,11.36c-5.04,2.66-10.89,4-17.58,4C2023.12,1195.12,2017.3,1193.76,2012.27,1191.06z M2041.02,1175.32
							c2.87-2.96,4.31-6.89,4.31-11.81v-27.92c0-4.9-1.42-8.86-4.25-11.86c-2.83-3-6.62-4.51-11.36-4.51c-4.65,0-8.4,1.51-11.23,4.51
							c-2.84,3-4.25,6.96-4.25,11.86v27.92c0,4.91,1.41,8.84,4.25,11.81c2.83,2.96,6.58,4.44,11.23,4.44
							S2038.14,1178.29,2041.02,1175.32z"/>
						<path class="st0" d="M2134.73,1105.34c0.29-0.3,0.65-0.44,1.08-0.44h14.85c0.42,0,0.78,0.15,1.08,0.44
							c0.3,0.3,0.45,0.66,0.45,1.08v85.78c0,0.42-0.15,0.79-0.45,1.08c-0.3,0.3-0.66,0.44-1.08,0.44h-14.34
							c-0.85,0-1.44-0.34-1.78-1.01l-32.86-54.31c-0.17-0.26-0.34-0.36-0.51-0.32c-0.17,0.05-0.25,0.23-0.25,0.57l0.25,53.55
							c0,0.42-0.15,0.79-0.44,1.08c-0.3,0.3-0.66,0.44-1.08,0.44h-14.85c-0.42,0-0.78-0.15-1.08-0.44c-0.3-0.3-0.45-0.66-0.45-1.08
							v-85.78c0-0.42,0.15-0.79,0.45-1.08c0.29-0.3,0.65-0.44,1.08-0.44h14.34c0.85,0,1.44,0.34,1.78,1.01l32.74,54.06
							c0.17,0.26,0.34,0.37,0.51,0.32c0.17-0.04,0.25-0.23,0.25-0.57l-0.13-53.3C2134.28,1105.99,2134.43,1105.63,2134.73,1105.34z"/>
						<path class="st0" d="M2188.15,1191.06c-5.04-2.71-8.95-6.49-11.74-11.36c-2.79-4.86-4.19-10.47-4.19-16.81v-27.15
							c0-6.26,1.4-11.81,4.19-16.62c2.79-4.82,6.7-8.57,11.74-11.24c5.03-2.66,10.85-4,17.45-4c6.68,0,12.54,1.33,17.58,4
							c5.03,2.66,8.95,6.41,11.74,11.24c2.79,4.82,4.19,10.36,4.19,16.62v27.15c0,6.35-1.4,11.97-4.19,16.88
							c-2.79,4.9-6.71,8.69-11.74,11.36c-5.04,2.66-10.89,4-17.58,4C2199,1195.12,2193.18,1193.76,2188.15,1191.06z M2216.89,1175.32
							c2.87-2.96,4.31-6.89,4.31-11.81v-27.92c0-4.9-1.42-8.86-4.25-11.86c-2.83-3-6.62-4.51-11.36-4.51c-4.65,0-8.4,1.51-11.23,4.51
							c-2.84,3-4.25,6.96-4.25,11.86v27.92c0,4.91,1.41,8.84,4.25,11.81c2.83,2.96,6.58,4.44,11.23,4.44
							C2210.25,1179.76,2214.01,1178.29,2216.89,1175.32z"/>
						<path class="st0" d="M2318.03,1104.89h14.85c0.42,0,0.78,0.15,1.08,0.44c0.3,0.3,0.45,0.66,0.45,1.08v85.78
							c0,0.42-0.15,0.79-0.45,1.08c-0.3,0.3-0.66,0.44-1.08,0.44h-14.85c-0.42,0-0.79-0.15-1.08-0.44c-0.3-0.3-0.45-0.66-0.45-1.08
							v-55.96c0-0.34-0.08-0.51-0.25-0.51c-0.17,0-0.34,0.13-0.51,0.38l-13.45,21.07c-0.42,0.67-1.02,1.01-1.78,1.01h-7.49
							c-0.76,0-1.35-0.34-1.77-1.01l-13.45-21.07c-0.17-0.25-0.34-0.36-0.51-0.31c-0.17,0.04-0.26,0.23-0.26,0.57v55.83
							c0,0.42-0.15,0.79-0.44,1.08c-0.3,0.3-0.66,0.44-1.08,0.44h-14.85c-0.42,0-0.78-0.15-1.08-0.44c-0.3-0.3-0.45-0.66-0.45-1.08
							v-85.78c0-0.42,0.15-0.79,0.45-1.08c0.29-0.3,0.65-0.44,1.08-0.44h14.85c0.76,0,1.35,0.34,1.78,1.01l19.03,29.57
							c0.25,0.51,0.51,0.51,0.76,0l19.16-29.57C2316.67,1105.23,2317.27,1104.89,2318.03,1104.89z"/>
						<path class="st0" d="M2356.67,1193.28c-0.3-0.3-0.45-0.66-0.45-1.08v-85.78c0-0.42,0.15-0.79,0.45-1.08
							c0.29-0.3,0.65-0.44,1.08-0.44h14.85c0.42,0,0.78,0.15,1.08,0.44c0.29,0.3,0.44,0.66,0.44,1.08v85.78c0,0.42-0.15,0.79-0.44,1.08
							c-0.3,0.3-0.66,0.44-1.08,0.44h-14.85C2357.32,1193.72,2356.96,1193.58,2356.67,1193.28z"/>
						<path class="st0" d="M2409.77,1190.87c-4.99-2.58-8.84-6.2-11.55-10.85c-2.71-4.65-4.06-10.02-4.06-16.11v-29.32
							c0-6.09,1.35-11.46,4.06-16.11c2.71-4.65,6.55-8.25,11.55-10.79c4.99-2.54,10.79-3.81,17.39-3.81c6.51,0,12.25,1.21,17.2,3.62
							s8.8,5.84,11.55,10.28c2.75,4.44,4.13,9.58,4.13,15.42c0,0.76-0.51,1.22-1.52,1.39l-14.85,0.89h-0.25c-0.85,0-1.27-0.47-1.27-1.4
							c0-4.48-1.38-8.08-4.13-10.79c-2.75-2.71-6.37-4.06-10.85-4.06c-4.57,0-8.23,1.36-10.98,4.06c-2.75,2.71-4.12,6.31-4.12,10.79
							v30.58c0,4.4,1.37,7.95,4.12,10.66c2.75,2.71,6.41,4.06,10.98,4.06c4.48,0,8.1-1.35,10.85-4.06c2.75-2.71,4.13-6.26,4.13-10.66
							c0-0.93,0.51-1.39,1.52-1.39l14.85,0.63c0.42,0,0.78,0.12,1.08,0.38c0.3,0.26,0.45,0.55,0.45,0.89c0,5.84-1.38,11-4.13,15.48
							c-2.75,4.48-6.6,7.95-11.55,10.4s-10.68,3.68-17.2,3.68C2420.56,1194.73,2414.76,1193.45,2409.77,1190.87z"/>
						<path class="st0" d="M2493.59,1191.06c-5.04-2.71-8.95-6.49-11.74-11.36c-2.79-4.86-4.19-10.47-4.19-16.81v-27.15
							c0-6.26,1.4-11.81,4.19-16.62c2.79-4.82,6.7-8.57,11.74-11.24c5.03-2.66,10.85-4,17.45-4c6.68,0,12.54,1.33,17.58,4
							c5.03,2.66,8.95,6.41,11.74,11.24c2.79,4.82,4.19,10.36,4.19,16.62v27.15c0,6.35-1.4,11.97-4.19,16.88
							c-2.79,4.9-6.71,8.69-11.74,11.36c-5.04,2.66-10.89,4-17.58,4C2504.44,1195.12,2498.62,1193.76,2493.59,1191.06z
							 M2522.33,1175.32c2.87-2.96,4.31-6.89,4.31-11.81v-27.92c0-4.9-1.42-8.86-4.25-11.86c-2.83-3-6.62-4.51-11.36-4.51
							c-4.65,0-8.4,1.51-11.23,4.51c-2.84,3-4.25,6.96-4.25,11.86v27.92c0,4.91,1.41,8.84,4.25,11.81c2.83,2.96,6.58,4.44,11.23,4.44
							C2515.69,1179.76,2519.46,1178.29,2522.33,1175.32z"/>
						<path class="st0" d="M2609,1191.5c-5.08-2.15-8.99-5.24-11.74-9.26c-2.75-4.01-4.12-8.69-4.12-14.02v-2.79
							c0-0.42,0.15-0.78,0.45-1.08c0.3-0.3,0.65-0.44,1.08-0.44h14.47c0.42,0,0.78,0.15,1.08,0.44c0.3,0.3,0.45,0.66,0.45,1.08v1.9
							c0,3.39,1.57,6.24,4.7,8.57c3.13,2.33,7.36,3.49,12.69,3.49c4.48,0,7.82-0.95,10.02-2.85c2.2-1.9,3.3-4.25,3.3-7.05
							c0-2.03-0.68-3.74-2.03-5.14c-1.35-1.4-3.19-2.62-5.52-3.68c-2.33-1.05-6.03-2.51-11.1-4.38c-5.67-1.94-10.47-3.93-14.4-5.96
							c-3.93-2.03-7.23-4.8-9.9-8.31c-2.66-3.51-4-7.84-4-13c0-5.08,1.31-9.52,3.93-13.32c2.62-3.81,6.26-6.73,10.91-8.76
							c4.65-2.03,10.02-3.05,16.12-3.05c6.43,0,12.16,1.15,17.19,3.43c5.03,2.29,8.97,5.48,11.8,9.58s4.25,8.86,4.25,14.28v1.9
							c0,0.42-0.15,0.78-0.44,1.08c-0.3,0.3-0.66,0.44-1.08,0.44h-14.59c-0.42,0-0.79-0.15-1.08-0.44c-0.3-0.3-0.45-0.65-0.45-1.08
							v-1.02c0-3.55-1.46-6.57-4.38-9.07c-2.92-2.5-6.92-3.75-11.99-3.75c-3.98,0-7.09,0.85-9.33,2.54c-2.24,1.69-3.36,4.01-3.36,6.98
							c0,2.12,0.65,3.89,1.97,5.33c1.31,1.44,3.26,2.73,5.84,3.87c2.58,1.15,6.58,2.69,11.99,4.63c6,2.21,10.72,4.15,14.15,5.84
							c3.42,1.69,6.51,4.21,9.26,7.55c2.75,3.35,4.13,7.68,4.13,13.01c0,7.95-2.92,14.24-8.76,18.85c-5.84,4.61-13.75,6.91-23.73,6.91
							C2620,1194.73,2614.08,1193.66,2609,1191.5z"/>
						<path class="st0" d="M2692.31,1191.06c-5.04-2.71-8.95-6.49-11.74-11.36c-2.79-4.86-4.19-10.47-4.19-16.81v-27.15
							c0-6.26,1.4-11.81,4.19-16.62c2.79-4.82,6.7-8.57,11.74-11.24c5.03-2.66,10.85-4,17.45-4c6.68,0,12.54,1.33,17.58,4
							c5.03,2.66,8.95,6.41,11.74,11.24c2.79,4.82,4.19,10.36,4.19,16.62v27.15c0,6.35-1.4,11.97-4.19,16.88
							c-2.79,4.9-6.71,8.69-11.74,11.36c-5.04,2.66-10.89,4-17.58,4C2703.16,1195.12,2697.34,1193.76,2692.31,1191.06z
							 M2721.05,1175.32c2.87-2.96,4.31-6.89,4.31-11.81v-27.92c0-4.9-1.42-8.86-4.25-11.86c-2.83-3-6.62-4.51-11.36-4.51
							c-4.65,0-8.4,1.51-11.23,4.51c-2.84,3-4.25,6.96-4.25,11.86v27.92c0,4.91,1.41,8.84,4.25,11.81c2.83,2.96,6.58,4.44,11.23,4.44
							S2718.17,1178.29,2721.05,1175.32z"/>
						<path class="st0" d="M2776,1191.5c-5.08-2.15-8.99-5.24-11.74-9.26c-2.75-4.01-4.13-8.69-4.13-14.02v-2.79
							c0-0.42,0.15-0.78,0.45-1.08s0.65-0.44,1.08-0.44h14.47c0.42,0,0.78,0.15,1.08,0.44c0.3,0.3,0.45,0.66,0.45,1.08v1.9
							c0,3.39,1.57,6.24,4.7,8.57c3.13,2.33,7.36,3.49,12.69,3.49c4.48,0,7.82-0.95,10.03-2.85c2.2-1.9,3.3-4.25,3.3-7.05
							c0-2.03-0.68-3.74-2.03-5.14s-3.19-2.62-5.52-3.68c-2.33-1.05-6.03-2.51-11.1-4.38c-5.67-1.94-10.47-3.93-14.4-5.96
							c-3.93-2.03-7.23-4.8-9.9-8.31c-2.66-3.51-4-7.84-4-13c0-5.08,1.31-9.52,3.93-13.32c2.62-3.81,6.26-6.73,10.91-8.76
							c4.65-2.03,10.02-3.05,16.12-3.05c6.43,0,12.16,1.15,17.19,3.43c5.03,2.29,8.97,5.48,11.8,9.58s4.25,8.86,4.25,14.28v1.9
							c0,0.42-0.15,0.78-0.44,1.08c-0.3,0.3-0.66,0.44-1.08,0.44h-14.59c-0.42,0-0.79-0.15-1.08-0.44c-0.3-0.3-0.45-0.65-0.45-1.08
							v-1.02c0-3.55-1.46-6.57-4.38-9.07c-2.92-2.5-6.92-3.75-11.99-3.75c-3.98,0-7.09,0.85-9.33,2.54c-2.24,1.69-3.36,4.01-3.36,6.98
							c0,2.12,0.65,3.89,1.97,5.33c1.31,1.44,3.26,2.73,5.84,3.87c2.58,1.15,6.58,2.69,11.99,4.63c6,2.21,10.72,4.15,14.15,5.84
							c3.42,1.69,6.51,4.21,9.26,7.55c2.75,3.35,4.13,7.68,4.13,13.01c0,7.95-2.92,14.24-8.76,18.85c-5.84,4.61-13.75,6.91-23.73,6.91
							C2786.99,1194.73,2781.07,1193.66,2776,1191.5z"/>
						<path class="st0" d="M2906.51,1105.34c0.3,0.3,0.45,0.66,0.45,1.08v12.43c0,0.42-0.15,0.79-0.45,1.08
							c-0.3,0.3-0.65,0.45-1.08,0.45h-22.72c-0.42,0-0.63,0.21-0.63,0.63v71.19c0,0.42-0.15,0.79-0.44,1.08
							c-0.3,0.3-0.66,0.44-1.08,0.44h-14.85c-0.42,0-0.78-0.15-1.08-0.44c-0.3-0.3-0.45-0.66-0.45-1.08v-71.19
							c0-0.42-0.21-0.63-0.63-0.63h-22.08c-0.42,0-0.78-0.15-1.08-0.45c-0.3-0.29-0.45-0.65-0.45-1.08v-12.43
							c0-0.42,0.15-0.79,0.45-1.08c0.3-0.3,0.65-0.44,1.08-0.44h63.96C2905.85,1104.89,2906.21,1105.04,2906.51,1105.34z"/>
						<path class="st0" d="M2985.95,1119.81c-0.3,0.3-0.66,0.44-1.08,0.44h-41.62c-0.42,0-0.63,0.21-0.63,0.63v19.67
							c0,0.42,0.21,0.63,0.63,0.63h27.28c0.42,0,0.78,0.15,1.08,0.44c0.29,0.3,0.44,0.66,0.44,1.08v12.31c0,0.42-0.15,0.78-0.44,1.08
							c-0.3,0.3-0.66,0.45-1.08,0.45h-27.28c-0.42,0-0.63,0.21-0.63,0.63v20.56c0,0.42,0.21,0.63,0.63,0.63h41.62
							c0.42,0,0.78,0.15,1.08,0.44c0.29,0.3,0.44,0.66,0.44,1.08v12.31c0,0.42-0.15,0.79-0.44,1.08c-0.3,0.3-0.66,0.44-1.08,0.44
							h-58.63c-0.42,0-0.78-0.15-1.08-0.44c-0.3-0.3-0.45-0.66-0.45-1.08v-85.78c0-0.42,0.15-0.79,0.45-1.08
							c0.29-0.3,0.65-0.44,1.08-0.44h58.63c0.42,0,0.78,0.15,1.08,0.44c0.29,0.3,0.44,0.66,0.44,1.08v12.31
							C2986.39,1119.15,2986.24,1119.51,2985.95,1119.81z"/>
						<path class="st0" d="M3056.63,1105.34c0.29-0.3,0.65-0.44,1.08-0.44h14.85c0.42,0,0.78,0.15,1.08,0.44
							c0.3,0.3,0.45,0.66,0.45,1.08v85.78c0,0.42-0.15,0.79-0.45,1.08c-0.3,0.3-0.66,0.44-1.08,0.44h-14.34
							c-0.85,0-1.44-0.34-1.78-1.01l-32.86-54.31c-0.17-0.26-0.34-0.36-0.51-0.32c-0.17,0.05-0.25,0.23-0.25,0.57l0.25,53.55
							c0,0.42-0.15,0.79-0.44,1.08c-0.3,0.3-0.66,0.44-1.08,0.44h-14.85c-0.42,0-0.78-0.15-1.08-0.44c-0.3-0.3-0.45-0.66-0.45-1.08
							v-85.78c0-0.42,0.15-0.79,0.45-1.08c0.29-0.3,0.65-0.44,1.08-0.44h14.34c0.85,0,1.44,0.34,1.78,1.01l32.74,54.06
							c0.17,0.26,0.34,0.37,0.51,0.32c0.17-0.04,0.25-0.23,0.25-0.57l-0.13-53.3C3056.18,1105.99,3056.33,1105.63,3056.63,1105.34z"/>
						<path class="st0" d="M3096.35,1193.28c-0.3-0.3-0.45-0.66-0.45-1.08v-85.78c0-0.42,0.15-0.79,0.45-1.08
							c0.29-0.3,0.65-0.44,1.08-0.44h14.85c0.42,0,0.78,0.15,1.08,0.44c0.29,0.3,0.44,0.66,0.44,1.08v85.78c0,0.42-0.15,0.79-0.44,1.08
							c-0.3,0.3-0.66,0.44-1.08,0.44h-14.85C3097,1193.72,3096.64,1193.58,3096.35,1193.28z"/>
						<path class="st0" d="M3188.28,1148.16c8.04,4.15,12.06,11.04,12.06,20.68c0,8.21-2.79,14.41-8.38,18.59
							c-5.58,4.19-12.9,6.28-21.95,6.28h-32.87c-0.42,0-0.78-0.15-1.08-0.44c-0.3-0.3-0.45-0.66-0.45-1.08v-85.78
							c0-0.42,0.15-0.79,0.45-1.08c0.29-0.3,0.65-0.44,1.08-0.44H3169c20.05,0,30.07,8.12,30.07,24.36c0,8.47-3.6,14.51-10.79,18.15
							C3187.78,1147.66,3187.78,1147.91,3188.28,1148.16z M3153.51,1120.88v19.79c0,0.42,0.21,0.63,0.63,0.63H3169
							c3.98,0,7.06-0.93,9.26-2.79c2.2-1.86,3.3-4.4,3.3-7.62c0-3.3-1.1-5.9-3.3-7.8c-2.2-1.91-5.29-2.86-9.26-2.86h-14.85
							C3153.73,1120.25,3153.51,1120.46,3153.51,1120.88z M3179.15,1175.26c2.2-1.99,3.3-4.72,3.3-8.19c0-3.47-1.1-6.2-3.3-8.19
							c-2.2-1.98-5.29-2.98-9.27-2.98h-15.74c-0.42,0-0.63,0.21-0.63,0.63v21.06c0,0.42,0.21,0.63,0.63,0.63h15.86
							C3173.9,1178.24,3176.95,1177.24,3179.15,1175.26z"/>
						<path class="st0" d="M3221.09,1193.28c-0.3-0.3-0.45-0.66-0.45-1.08v-85.78c0-0.42,0.15-0.79,0.45-1.08
							c0.29-0.3,0.65-0.44,1.08-0.44h14.85c0.42,0,0.78,0.15,1.08,0.44c0.29,0.3,0.44,0.66,0.44,1.08v85.78c0,0.42-0.15,0.79-0.44,1.08
							c-0.3,0.3-0.66,0.44-1.08,0.44h-14.85C3221.74,1193.72,3221.38,1193.58,3221.09,1193.28z"/>
						<path class="st0" d="M3260.81,1193.28c-0.3-0.3-0.45-0.66-0.45-1.08v-85.78c0-0.42,0.15-0.79,0.45-1.08
							c0.29-0.3,0.65-0.44,1.08-0.44h14.85c0.42,0,0.78,0.15,1.08,0.44c0.29,0.3,0.44,0.66,0.44,1.08v71.32c0,0.42,0.21,0.63,0.63,0.63
							h41.5c0.42,0,0.78,0.15,1.08,0.44c0.3,0.3,0.45,0.66,0.45,1.08v12.31c0,0.42-0.15,0.79-0.45,1.08c-0.3,0.3-0.66,0.44-1.08,0.44
							h-58.5C3261.46,1193.72,3261.1,1193.58,3260.81,1193.28z"/>
						<path class="st0" d="M3400.52,1119.81c-0.3,0.3-0.66,0.44-1.08,0.44h-41.62c-0.42,0-0.63,0.21-0.63,0.63v19.67
							c0,0.42,0.21,0.63,0.63,0.63h27.28c0.42,0,0.78,0.15,1.08,0.44c0.29,0.3,0.44,0.66,0.44,1.08v12.31c0,0.42-0.15,0.78-0.44,1.08
							c-0.3,0.3-0.66,0.45-1.08,0.45h-27.28c-0.42,0-0.63,0.21-0.63,0.63v20.56c0,0.42,0.21,0.63,0.63,0.63h41.62
							c0.42,0,0.78,0.15,1.08,0.44c0.29,0.3,0.44,0.66,0.44,1.08v12.31c0,0.42-0.15,0.79-0.44,1.08c-0.3,0.3-0.66,0.44-1.08,0.44
							h-58.63c-0.42,0-0.78-0.15-1.08-0.44c-0.3-0.3-0.45-0.66-0.45-1.08v-85.78c0-0.42,0.15-0.79,0.45-1.08
							c0.29-0.3,0.65-0.44,1.08-0.44h58.63c0.42,0,0.78,0.15,1.08,0.44c0.29,0.3,0.44,0.66,0.44,1.08v12.31
							C3400.96,1119.15,3400.81,1119.51,3400.52,1119.81z"/>
					</g>
				</g>
				<polygon class="st0" points="2232.21,598.83 2396.25,598.83 2181.03,352.35 2181.03,698.59 1733.58,698.59 1732.74,697.61 
					1431.24,352.35 1431.24,698.59 982.95,698.59 982.95,199.69 1282.3,199.69 1282.3,299.48 1082.75,299.48 1082.75,400.33 
					1232.42,400.33 1232.42,500.13 1082.75,500.13 1082.75,598.83 1331.44,598.83 1331.44,199.69 1430.4,199.69 1431.24,200.67 
					1732.74,545.93 1732.74,199.69 2032.09,199.69 2032.09,299.48 1832.53,299.48 1832.53,400.33 1981.58,400.33 1981.58,500.13 
					1832.53,500.13 1832.53,598.83 2081.23,598.83 2081.23,199.69 2180.18,199.69 2181.03,200.67 2528.71,598.83 2615.83,698.59 
					2232.21,698.59 	"/>
				<rect x="201.32" y="798.1" class="st0" width="3200.32" height="17.87"/>
			</g>
			</svg>